<?xml version="1.0" encoding="UTF-8"?>
<!-- Generator: Adobe Illustrator 18.1.1, SVG Export Plug-In . SVG Version: 6.00 Build 0)  -->
<svg enable-background="new 0 0 24.303 24.303" version="1.1" viewBox="0 0 24.303 24.303" xml:space="preserve" xmlns="http://www.w3.org/2000/svg" xmlns:cc="http://creativecommons.org/ns#" xmlns:dc="http://purl.org/dc/elements/1.1/" xmlns:rdf="http://www.w3.org/1999/02/22-rdf-syntax-ns#"><metadata><rdf:RDF><cc:Work rdf:about=""><dc:format>image/svg+xml</dc:format><dc:type rdf:resource="http://purl.org/dc/dcmitype/StillImage"/><dc:title/></cc:Work></rdf:RDF></metadata>

	<path d="m10.269 11.298v-9.415c0-1.039 0.844-1.883 1.883-1.883s1.883 0.844 1.883 1.883v9.415c0 1.039-0.844 1.883-1.883 1.883s-1.883-0.844-1.883-1.883zm9.347-8.537c-0.61-0.483-1.5-0.377-1.983 0.234-0.483 0.612-0.378 1.5 0.234 1.984 2.24 1.767 3.524 4.413 3.524 7.261 0 5.094-4.145 9.239-9.238 9.239-5.094 0-9.239-4.145-9.239-9.239 0-2.847 1.283-5.492 3.521-7.258 0.612-0.483 0.717-1.371 0.234-1.984-0.483-0.612-1.37-0.716-1.984-0.234-2.921 2.305-4.596 5.759-4.596 9.476 0 6.652 5.412 12.063 12.063 12.063s12.063-5.412 12.063-12.063c0-3.719-1.677-7.173-4.599-9.479z" fill="#030104"/>
















</svg>
