<?xml version="1.0" encoding="UTF-8"?>
<!-- Generator: Adobe Illustrator 19.0.0, SVG Export Plug-In . SVG Version: 6.00 Build 0)  -->
<svg enable-background="new 0 0 60 60" version="1.1" viewBox="0 0 60 60" xml:space="preserve" xmlns="http://www.w3.org/2000/svg" xmlns:cc="http://creativecommons.org/ns#" xmlns:dc="http://purl.org/dc/elements/1.1/" xmlns:rdf="http://www.w3.org/1999/02/22-rdf-syntax-ns#"><metadata><rdf:RDF><cc:Work rdf:about=""><dc:format>image/svg+xml</dc:format><dc:type rdf:resource="http://purl.org/dc/dcmitype/StillImage"/><dc:title/></cc:Work></rdf:RDF></metadata>

	<path d="m30 0c-16.542 0-30 13.458-30 30s13.458 30 30 30 30-13.458 30-30-13.458-30-30-30zm18.697 36.045 2.272 0.609c-0.383 1.203-0.869 2.36-1.444 3.465l-2.029-1.172c-0.478-0.276-1.09-0.113-1.366 0.366s-0.112 1.09 0.366 1.366l2.026 1.17c-0.678 1.056-1.439 2.054-2.283 2.976l-1.655-1.655c-0.391-0.391-1.023-0.391-1.414 0s-0.391 1.023 0 1.414l1.655 1.655c-0.923 0.843-1.92 1.605-2.976 2.283l-1.17-2.026c-0.277-0.479-0.89-0.643-1.366-0.366-0.478 0.276-0.643 0.888-0.366 1.366l1.172 2.029c-1.104 0.575-2.261 1.061-3.465 1.444l-0.609-2.272c-0.144-0.534-0.689-0.851-1.225-0.707-0.533 0.143-0.85 0.691-0.707 1.225l0.608 2.27c-1.207 0.265-2.45 0.433-3.722 0.49v-2.35c0-0.553-0.447-1-1-1s-1 0.447-1 1v2.35c-1.272-0.057-2.514-0.225-3.722-0.49l0.608-2.27c0.143-0.533-0.174-1.082-0.707-1.225-0.532-0.144-1.081 0.173-1.225 0.707l-0.609 2.272c-1.203-0.383-2.36-0.869-3.465-1.444l1.172-2.029c0.276-0.479 0.112-1.09-0.366-1.366s-1.09-0.113-1.366 0.366l-1.17 2.026c-1.056-0.678-2.054-1.439-2.976-2.283l1.655-1.655c0.391-0.391 0.391-1.023 0-1.414s-1.023-0.391-1.414 0l-1.655 1.655c-0.843-0.923-1.605-1.92-2.283-2.976l2.026-1.17c0.479-0.276 0.643-0.888 0.366-1.366-0.277-0.479-0.891-0.643-1.366-0.366l-2.029 1.172c-0.575-1.104-1.061-2.261-1.444-3.465l2.272-0.609c0.533-0.143 0.85-0.691 0.707-1.225-0.144-0.534-0.69-0.85-1.225-0.707l-2.27 0.608c-0.263-1.207-0.43-2.449-0.488-3.721h2.35c0.553 0 1-0.447 1-1s-0.447-1-1-1h-2.35c0.057-1.272 0.225-2.514 0.49-3.722l2.27 0.608c0.087 0.023 0.174 0.034 0.26 0.034 0.441 0 0.845-0.294 0.965-0.741 0.143-0.533-0.174-1.082-0.707-1.225l-2.272-0.609c0.383-1.203 0.869-2.36 1.444-3.465l2.029 1.172c0.157 0.091 0.329 0.134 0.499 0.134 0.346 0 0.682-0.179 0.867-0.5 0.276-0.479 0.112-1.09-0.366-1.366l-2.026-1.17c0.678-1.056 1.439-2.054 2.283-2.976l1.655 1.655c0.195 0.195 0.451 0.293 0.707 0.293s0.512-0.098 0.707-0.293c0.391-0.391 0.391-1.023 0-1.414l-1.655-1.655c0.923-0.843 1.92-1.605 2.976-2.283l1.17 2.026c0.186 0.321 0.521 0.5 0.867 0.5 0.17 0 0.342-0.043 0.499-0.134 0.479-0.276 0.643-0.888 0.366-1.366l-1.172-2.029c1.104-0.575 2.261-1.061 3.465-1.444l0.609 2.272c0.12 0.447 0.523 0.741 0.965 0.741 0.086 0 0.173-0.011 0.26-0.034 0.533-0.143 0.85-0.691 0.707-1.225l-0.608-2.27c1.207-0.265 2.45-0.433 3.722-0.49v2.35c0 0.553 0.447 1 1 1s1-0.447 1-1v-2.35c1.272 0.057 2.514 0.225 3.722 0.49l-0.608 2.27c-0.143 0.533 0.174 1.082 0.707 1.225 0.087 0.023 0.174 0.034 0.26 0.034 0.441 0 0.845-0.294 0.965-0.741l0.609-2.272c1.203 0.383 2.36 0.869 3.465 1.444l-1.172 2.029c-0.276 0.479-0.112 1.09 0.366 1.366 0.157 0.091 0.329 0.134 0.499 0.134 0.346 0 0.682-0.179 0.867-0.5l1.17-2.026c1.056 0.678 2.054 1.439 2.976 2.283l-1.655 1.655c-0.391 0.391-0.391 1.023 0 1.414 0.195 0.195 0.451 0.293 0.707 0.293s0.512-0.098 0.707-0.293l1.655-1.655c0.843 0.923 1.605 1.92 2.283 2.976l-2.026 1.17c-0.479 0.276-0.643 0.888-0.366 1.366 0.186 0.321 0.521 0.5 0.867 0.5 0.17 0 0.342-0.043 0.499-0.134l2.029-1.172c0.575 1.104 1.061 2.261 1.444 3.465l-2.272 0.609c-0.533 0.143-0.85 0.691-0.707 1.225 0.12 0.447 0.523 0.741 0.965 0.741 0.086 0 0.173-0.011 0.26-0.034l2.27-0.608c0.265 1.207 0.433 2.45 0.49 3.722h-2.35c-0.553 0-1 0.447-1 1s0.447 1 1 1h2.35c-0.057 1.272-0.225 2.514-0.49 3.722l-2.27-0.608c-0.531-0.142-1.08 0.173-1.225 0.707-0.144 0.533 0.172 1.081 0.705 1.224z"/>
	<path d="M30.707,30.707C30.512,30.902,30.256,31,30,31s-0.512-0.098-0.707-0.293c-0.391-0.391-0.391-1.023,0-1.414l7.741-7.741   C35.125,19.961,32.673,19,30,19c-6.065,0-11,4.935-11,11s4.935,11,11,11s11-4.935,11-11c0-2.673-0.961-5.125-2.552-7.034   L30.707,30.707z"/>
















</svg>
