<?xml version="1.0" encoding="UTF-8"?>
<!-- Svg Vector Icons : http://www.onlinewebfonts.com/icon -->
<svg enable-background="new 0 0 1000 1000" version="1.1" viewBox="0 0 1e3 1e3" xml:space="preserve" xmlns="http://www.w3.org/2000/svg" xmlns:cc="http://creativecommons.org/ns#" xmlns:dc="http://purl.org/dc/elements/1.1/" xmlns:rdf="http://www.w3.org/1999/02/22-rdf-syntax-ns#">
<metadata> Svg Vector Icons : http://www.onlinewebfonts.com/icon <rdf:RDF><cc:Work rdf:about=""><dc:format>image/svg+xml</dc:format><dc:type rdf:resource="http://purl.org/dc/dcmitype/StillImage"/><dc:title/></cc:Work></rdf:RDF></metadata>
<g transform="translate(0 511) scale(.1 -.1)"><path d="m4637.1 4979.9c-320.2-53.4-672-201.6-976.4-409.2-189.8-128.5-549.5-490.2-699.7-699.7-403.2-565.3-658.2-1251.2-749.1-2012.2-19.8-170-25.7-804.5-25.7-2876 0-2992.6-9.9-2775.2 152.2-3091.4 146.3-280.7 407.2-504 731.3-620.6l144.3-53.4 1719.6-5.9c1543.7-3.9 1735.4-2 1867.9 27.7 484.3 106.7 853.9 464.5 978.4 946.8 45.4 177.9 45.4 5406 0 5755.9-110.7 838.1-428.9 1585.2-917.2 2154.5-591 687.8-1425.1 1019.8-2225.6 883.5zm889.5-332.1c865.7-257 1575.4-1095 1858-2192 142.3-555.4 134.4-401.3 142.3-3344.4 5.9-1929.2 2-2686.2-15.8-2783-61.3-371.6-359.8-699.7-719.5-794.6-175.9-45.5-3401.7-45.5-3577.6 0-363.7 94.9-658.2 421-721.5 796.6-31.6 193.7-15.8 5368.4 17.8 5587.9 37.6 255 118.6 596.9 193.7 820.3 290.6 879.6 923.1 1603 1622.8 1858 272.8 98.8 397.3 118.6 725.4 110.7 251-6.1 324.2-16 474.4-59.5z"/><path d="m4801.2 4003.4c-209.5-23.7-500.1-124.5-687.8-241.2-379.5-233.2-632.5-563.3-764.9-998.2-45.5-154.2-51.4-205.6-51.4-460.5 0-231.3 7.9-316.3 41.5-442.8 132.4-484.3 460.6-883.5 903.3-1099 294.5-144.3 399.3-168 761-168s466.5 23.7 761 168c565.3 276.7 917.1 818.3 952.7 1462.7 53.3 1041.8-863.9 1893.7-1915.4 1779zm417-298.4c312.3-49.4 567.3-181.8 792.6-411.1 268.8-274.7 393.3-559.4 411.1-942.8 5.9-177.9 2-247.1-33.6-385.4-162.1-650.3-721.4-1091.1-1385.6-1091.1-911.2 0-1591.2 846-1391.5 1731.5 164.1 729.3 879.6 1217.5 1607 1098.9z"/><path d="m5704.5 160.9c-162.1-39.5-288.6-110.7-407.2-229.3-126.5-126.5-183.8-223.3-227.3-401.2-110.7-428.9 140.3-869.7 573.2-1006.1 162.1-51.4 466.5-41.5 624.6 19.8 367.6 144.3 596.9 539.6 533.7 923.1-81.1 500-585.1 818.3-1097 693.7zm389.4-407.2c37.5-2 183.8-156.1 215.4-227.3 51.4-110.7 49.4-290.6-3.9-397.3-201.6-419-796.6-260.9-794.6 209.5 0 288.6 221.4 482.3 490.2 430.9 43.4-7.8 84.9-13.8 92.9-15.8z"/><path d="m3302.9-671.2v-824.3l421 9.9c438.8 9.9 533.7 25.7 705.6 112.7 268.8 136.4 419 389.4 421 709.6 2 361.7-175.9 620.6-517.9 757-100.8 39.5-152.2 45.5-569.3 51.4l-460.5 7.9v-824.2zm812.4 403.2c175.9-59.3 274.7-201.6 274.7-393.3s-102.8-342-270.8-397.3c-39.5-11.9-140.3-23.7-221.4-25.7l-150.2-2-5.9 421-4 419h154.2c87 0 185.8-9.9 223.4-21.7z"/><path d="m4939.5-1859.2c-134.4-41.5-298.5-197.7-349.9-336-81-213.5-41.5-448.7 98.8-608.8 229.3-260.9 650.3-272.8 897.4-23.7 132.4 132.4 175.9 255 164.1 454.6-25.7 399.3-403.2 638.5-810.4 513.9zm326.2-213.4c148.3-53.4 231.3-179.9 231.3-349.9 0-322.2-377.5-476.4-596.9-243.1-67.2 73.1-94.9 146.3-94.9 257 0 148.3 81 272.8 217.4 332.1 84.9 37.5 146.2 37.5 243.1 3.9z"/><path d="m3302.9-2420.5v-573.2h237.2l4 363.7 5.9 363.7 553.4-727.4h207.6v1146.4h-237.2v-347.9c0-276.7-5.9-343.9-25.7-328.1-11.9 11.9-134.4 168-270.8 347.9l-247.1 328.1h-227.3v-573.2z"/><path d="m5852.7-1956v-108.7h355.8v-929h257v929h336v217.4h-948.8v-108.7z"/><path d="m4227.9-3341.6c-158.1-85-112.7-247.1 87-304.4 128.5-37.6 158.1-98.8 47.4-98.8-37.6 0-92.9 9.9-118.6 23.7-43.5 17.8-57.3 15.8-90.9-13.8-55.3-49.4-51.4-57.3 39.5-98.8 152.2-67.2 328.1-39.5 373.6 63.3 53.4 114.6 4 183.8-166 233.2-67.2 19.7-108.7 43.5-108.7 61.3 0 45.5 55.3 55.4 136.4 23.7 75.1-29.6 75.1-29.6 108.7 23.7l31.6 55.3-79.1 31.6c-98.8 39.5-189.7 39.5-260.9 0z"/><path d="m3302.9-3596.6v-266.8h144.3c237.2 0 361.7 94.9 357.8 272.8-2 183.8-106.7 260.9-351.8 260.9h-150.2v-266.9zm304.4 106.8c100.8-79.1 47.4-225.4-90.9-249.1l-75.1-11.9v302.4h57.3c29.6 0.1 79.1-17.8 108.7-41.4z"/><path d="m3895.9-3596.6v-266.8h158.2v533.7h-158.2v-266.9z"/><path d="m4627.2-3389.1c0-55.3 4-59.3 79.1-59.3h79.1v-415.1h138.4v415.1h89c85 0 88.9 2 88.9 59.3v59.3h-474.4v-59.3z"/><path d="m5160.9-3505.7c0-213.5 23.7-288.6 106.7-332.1 87-45.5 235.2-43.5 304.4 7.9 73.1 53.4 100.8 144.3 100.8 338l2 162.1h-158.2v-175.9c0-191.7-21.7-239.2-106.7-239.2-77.1 0-90.9 35.6-90.9 231.3v183.8h-158.1v-175.9z"/><path d="m5769.7-3487.9c-5.9-87-5.9-205.6 0-266.8 7.9-108.7 9.9-108.7 75.1-108.7s67.2 2 67.2 79.1c0 63.3 7.9 79.1 37.6 79.1 19.8 0 59.3-33.6 88.9-79.1 45.5-71.1 61.3-79.1 130.4-79.1 43.5 0 79.1 5.9 79.1 13.8 0 5.9-21.7 41.5-49.4 77.1s-49.4 71.2-49.4 77.1c0 7.9 21.7 39.5 49.4 73.1 67.2 79.1 65.2 162.1-7.9 235.2-55.3 55.4-65.2 57.3-235.2 57.3h-175.9l-9.9-158.1zm316.2-17.8c7.9-57.3-23.7-81-108.7-81-61.3 0-65.2 4-65.2 71.2v69.2l85-5.9c71.2-6 85-14 88.9-53.5z"/><path d="m6327.1-3596.6v-266.8h177.9c170 0 296.5 31.6 296.5 75.1 0 7.9 5.9 31.6 11.9 55.3 7.9 27.7-5.9 61.3-39.5 100.8-45.5 53.4-47.4 63.3-21.7 85 15.8 13.8 29.6 53.4 29.6 90.9 0 100.8-53.4 126.5-270.8 126.5h-183.8v-266.8zm284.6 156.2c17.8-6 31.6-27.7 31.6-47.5 0-61.3-148.2-87-170-29.6-27.6 71.1 45.5 112.6 138.4 77.1zm41.5-255c0-33.6-15.8-39.5-92.9-45.4-90.9-5.9-94.9-4-94.9 45.4s4 51.4 94.9 45.5c77.1-6 92.9-11.9 92.9-45.5z"/></g>
</svg>
