<?xml version="1.0" encoding="UTF-8"?>
<svg id="OutLine" width="480" height="480" version="1.1" viewBox="0 0 480 480" xmlns="http://www.w3.org/2000/svg" xmlns:cc="http://creativecommons.org/ns#" xmlns:dc="http://purl.org/dc/elements/1.1/" xmlns:rdf="http://www.w3.org/1999/02/22-rdf-syntax-ns#">
 <metadata>
  <rdf:RDF>
   <cc:Work rdf:about="">
    <dc:format>image/svg+xml</dc:format>
    <dc:type rdf:resource="http://purl.org/dc/dcmitype/StillImage"/>
    <dc:title/>
   </cc:Work>
  </rdf:RDF>
 </metadata>
 <path d="m241.08 30.644c-116.04 0-210.44 94.406-210.44 210.44s94.406 210.44 210.44 210.44c116.04 0 210.44-94.406 210.44-210.44s-94.406-210.44-210.44-210.44zm192.9 210.44c0 106.37-86.536 192.9-192.9 192.9-106.37 0-192.9-86.536-192.9-192.9a191.66 191.66 0 0 1 25.988-96.516c0.1096 0 0.20386 0.0636 0.31676 0.0636h114.78a52.543 52.543 0 0 0 103.64 0h115.13a191.65 191.65 0 0 1 25.952 96.452zm-227.98-105.22a35.073 35.073 0 1 1 35.073 35.073 35.109 35.109 0 0 1-35.073-35.073zm86.891-8.7684a52.543 52.543 0 0 0-103.64 0h-103.68a192.65 192.65 0 0 1 310.99 0z" stroke-width="1.096"/>
 <path d="m466.53 79.586a8 8 0 1 0-5.062-15.172l-43.669 14.556c-4.846-5.345-9.947-10.453-15.251-15.344l27.701-34.626a8.0039 8.0039 0 1 0-12.5-10l-27.338 34.173a239.32 239.32 0 0 0-300.82 0l-27.338-34.173a8.0039 8.0039 0 0 0-12.5 10l27.7 34.626c-5.3 4.891-10.4 10-15.251 15.344l-43.668-14.556a8 8 0 0 0-5.062 15.172l37.69 12.563a238.74 238.74 0 0 0-51.159 147.85c0 132.34 107.66 240 240 240s240-107.66 240-240a238.74 238.74 0 0 0-51.159-147.85zm-2.531 160.41c0 123.52-100.48 224-224 224s-224-100.48-224-224 100.48-224 224-224 224 100.48 224 224z"/>
 <path d="m240 320a24.027 24.027 0 0 0-24 24v32a24 24 0 0 0 48 0v-32a24.027 24.027 0 0 0-24-24zm8 56a8 8 0 0 1-16 0v-8h16zm0-24h-16v-8a8 8 0 0 1 16 0z"/>
 <circle cx="240" cy="216" r="8"/>
 <circle cx="272" cy="216" r="8"/>
 <circle cx="208" cy="216" r="8"/>
</svg>
