<?xml version="1.0" encoding="UTF-8"?>
<!-- Generator: Adobe Illustrator 18.0.0, SVG Export Plug-In . SVG Version: 6.00 Build 0)  -->
<svg enable-background="new 0 0 472.3 472.3" version="1.1" viewBox="0 0 472.3 472.3" xml:space="preserve" xmlns="http://www.w3.org/2000/svg" xmlns:cc="http://creativecommons.org/ns#" xmlns:dc="http://purl.org/dc/elements/1.1/" xmlns:rdf="http://www.w3.org/1999/02/22-rdf-syntax-ns#"><metadata><rdf:RDF><cc:Work rdf:about=""><dc:format>image/svg+xml</dc:format><dc:type rdf:resource="http://purl.org/dc/dcmitype/StillImage"/><dc:title/></cc:Work></rdf:RDF></metadata>
<g fill="#020202">
	<path d="m402.71 61.688-89.879-0.022c-2.621 0-4.989 1.584-5.987 4.005-1.007 2.421-0.455 5.203 1.398 7.064l33.839 33.838-234.72 235.97-33.809-33.809c-1.853-1.852-4.643-2.405-7.064-1.406-2.421 1.006-3.997 3.368-3.997 5.989l-8e-3 89.862c0 3.582 2.896 6.48 6.48 6.48l89.878 0.022c2.622 0 4.989-1.582 5.987-4.003 1.008-2.423 0.455-5.205-1.398-7.066l-33.809-33.808 178.83-180.13 55.862-55.864 33.809 33.809c1.853 1.853 4.643 2.406 7.064 1.406 2.421-1.006 3.997-3.366 3.997-5.987l8e-3 -89.863c1e-3 -3.582-2.897-6.481-6.479-6.481z"/>
	<path d="M435.279,0H37.022C16.574,0,0,16.573,0,37.022v398.256C0,455.727,16.574,472.3,37.022,472.3h398.258   c20.447,0,37.021-16.573,37.021-37.022V37.022C472.3,16.573,455.727,0,435.279,0z M440.813,435.278   c0,3.052-2.482,5.535-5.534,5.535H37.022c-3.052,0-5.535-2.483-5.535-5.535V37.022c0-3.053,2.483-5.536,5.535-5.536h398.258   c3.051,0,5.534,2.483,5.534,5.536V435.278z"/>
</g>















</svg>
