<?xml version="1.0" encoding="UTF-8"?>
<!-- Svg Vector Icons : http://www.onlinewebfonts.com/icon -->
<svg enable-background="new 0 0 1000 1000" version="1.1" viewBox="0 0 1e3 1e3" xml:space="preserve" xmlns="http://www.w3.org/2000/svg" xmlns:cc="http://creativecommons.org/ns#" xmlns:dc="http://purl.org/dc/elements/1.1/" xmlns:rdf="http://www.w3.org/1999/02/22-rdf-syntax-ns#">
<metadata> Svg Vector Icons : http://www.onlinewebfonts.com/icon <rdf:RDF><cc:Work rdf:about=""><dc:format>image/svg+xml</dc:format><dc:type rdf:resource="http://purl.org/dc/dcmitype/StillImage"/><dc:title/></cc:Work></rdf:RDF></metadata>
<path d="m978.3 610.6c-3.9 4-7.4 7.6-10.5 11.1s-5.8 6.4-8.2 8.8c-3.1 3.2-5.8 5.5-8.1 7l-98.8-97.9c4.6-3.9 9.9-8.6 15.7-14 5.8-5.5 10.6-9.8 14.6-12.9 9.3-8.6 19.4-12.2 30.2-11.1 10.8 1.2 19.7 3.7 26.7 7.6 7.8 3.9 16.1 10.7 25 20.4 8.9 9.8 15.7 20 20.3 31 2.3 6.2 3.9 14 4.7 23.3 0.8 9.2-3.1 18.2-11.6 26.7zm-179.1 178.4-41.8 42-38.4 38.4c-10.9 10.9-20 20.2-27.3 28-7.4 7.7-11.4 12-12.2 12.8-3.9 3.1-8.1 6.4-12.8 10-4.6 3.4-9.3 6.4-13.9 8.7s-11.8 5.2-21.5 8.8c-9.7 3.5-19.6 6.7-29.6 9.9-10.1 3.1-19.8 5.8-29.1 8.1-9.3 2.4-16.3 3.9-20.9 4.7-9.3 1.6-15.5 0.4-18.6-3.5s-3.9-10.5-2.3-19.8c0.8-4.7 2.3-11.7 4.6-21 2.3-9.4 5-18.9 8.2-28.6 3.1-9.8 6-18.9 8.7-27.5 2.7-8.5 4.8-14.4 6.3-17.4 4.7-10.1 10.9-19 18.6-26.8l15.1-15.2 29-29.1c11.6-11.7 24.4-24.7 38.3-39 13.9-14.4 27.9-28.6 41.8-42.5 33.4-33.4 70.9-70.8 112.8-111.9l97.6 97.9-112.6 113zm-97-605.8c0-15.9-12.9-28.9-28.8-28.9h-57.7v-57.6h115.4c15.9 0 28.8 12.9 28.8 28.9v392.2l-57.7 63.5v-398.1zm-86.5 129.8c0 7.9-6.5 14.4-14.4 14.4h-432.7c-8 0-14.4-6.5-14.4-14.4v-28.9c0-8 6.4-14.4 14.4-14.4h432.7c8 0 14.4 6.4 14.4 14.4v28.9zm-57.7-101h-28.9c-15.9 0-28.8-12.9-28.8-28.9v-115.3c0-15.9 12.9-28.9 28.8-28.9h28.9c15.9 0 28.8 12.9 28.8 28.9v115.4c0.1 15.9-12.9 28.8-28.8 28.8zm-259.6-115.3h173.1v57.7h-173.1v-57.7zm-57.7 115.3h-28.8c-15.9 0-28.9-12.9-28.9-28.9v-115.3c0-15.9 12.9-28.9 28.9-28.9h28.8c15.9 0 28.9 12.9 28.9 28.9v115.4c0 15.9-12.9 28.8-28.9 28.8zm-173-28.8v634.5c0 15.9 12.9 28.9 28.9 28.9h364.4l-52.4 57.7h-369.8c-15.9 0-28.8-12.9-28.8-28.8v-750c0-16 12.9-28.9 28.8-28.9h115.4v57.7h-57.7c-15.9 0-28.8 13-28.8 28.9zm100.9 605.7c-8 0-14.4-6.5-14.4-14.4v-28.9c0-8 6.4-14.4 14.4-14.4h397.2l-52.4 57.7h-344.8zm447.1-129.8c0 7.9-6.5 14.4-14.4 14.4h-432.7c-8 0-14.4-6.5-14.4-14.4v-28.8c0-8 6.4-14.4 14.4-14.4h432.6c8 0 14.4 6.4 14.4 14.4v28.8h0.1zm-14.4-216.3h-432.7c-8 0-14.4-6.5-14.4-14.4v-28.9c0-8 6.4-14.4 14.4-14.4h432.7c8 0 14.4 6.4 14.4 14.4v28.9c0 7.9-6.5 14.4-14.4 14.4zm14.4 100.9c0 7.9-6.5 14.4-14.4 14.4h-432.7c-8 0-14.4-6.5-14.4-14.4v-28.9c0-8 6.4-14.4 14.4-14.4h432.7c8 0 14.4 6.4 14.4 14.4v28.9z"/>
</svg>
